# Blender 5.1.2
# www.blender.org
mtllib spotlight.mtl
o pCylinder4
v 0.113400 0.105201 -0.321845
v 0.095173 0.140499 -0.327655
v 0.066784 0.168512 -0.332266
v 0.031011 0.186497 -0.335226
v -0.008644 0.192694 -0.336246
v -0.048299 0.186497 -0.335226
v -0.084072 0.168512 -0.332266
v -0.112461 0.140499 -0.327655
v -0.130689 0.105201 -0.321845
v -0.136969 0.066073 -0.315405
v -0.130689 0.026945 -0.308965
v -0.112461 -0.008354 -0.303155
v -0.084072 -0.036366 -0.298545
v -0.048299 -0.054351 -0.295584
v -0.008644 -0.060549 -0.294564
v 0.031011 -0.054351 -0.295584
v 0.066784 -0.036366 -0.298545
v 0.095173 -0.008354 -0.303155
v 0.113400 0.026945 -0.308965
v 0.119681 0.066073 -0.315405
v 0.113400 0.172724 0.088402
v 0.095173 0.208022 0.082592
v 0.066784 0.236035 0.077981
v 0.031011 0.254020 0.075021
v -0.008644 0.260217 0.074001
v -0.048299 0.254020 0.075021
v -0.084072 0.236035 0.077981
v -0.112461 0.208022 0.082592
v -0.130689 0.172724 0.088402
v -0.136969 0.133596 0.094842
v -0.130689 0.094467 0.101282
v -0.112461 0.059169 0.107092
v -0.084072 0.031157 0.111702
v -0.048299 0.013171 0.114662
v -0.008644 0.006974 0.115682
v 0.031011 0.013171 0.114662
v 0.066784 0.031157 0.111702
v 0.095173 0.059169 0.107092
v 0.113400 0.094467 0.101282
v 0.119681 0.133596 0.094842
v -0.008644 0.133596 0.094842
v 0.094338 0.099090 -0.320839
v 0.078958 0.128875 -0.325742
v 0.055003 0.152512 -0.329632
v 0.024817 0.167688 -0.332130
v -0.008644 0.172917 -0.332991
v -0.042105 0.167688 -0.332130
v -0.072291 0.152512 -0.329632
v -0.096246 0.128875 -0.325742
v -0.111627 0.099090 -0.320839
v -0.116926 0.066073 -0.315405
v -0.111627 0.033056 -0.309971
v -0.096246 0.003271 -0.305069
v -0.072291 -0.020366 -0.301178
v -0.042105 -0.035543 -0.298680
v -0.008644 -0.040772 -0.297820
v 0.024817 -0.035543 -0.298680
v 0.055003 -0.020366 -0.301178
v 0.078958 0.003271 -0.305069
v 0.094338 0.033056 -0.309971
v 0.099638 0.066073 -0.315405
v 0.094338 0.101324 -0.307263
v 0.078958 0.131109 -0.312165
v -0.008644 0.068307 -0.301829
v 0.055003 0.154747 -0.316056
v 0.024817 0.169923 -0.318554
v -0.008644 0.175152 -0.319414
v -0.042105 0.169923 -0.318554
v -0.072291 0.154747 -0.316056
v -0.096246 0.131109 -0.312165
v -0.111627 0.101324 -0.307263
v -0.116926 0.068307 -0.301829
v -0.111627 0.035291 -0.296394
v -0.096246 0.005506 -0.291492
v -0.072291 -0.018132 -0.287602
v -0.042105 -0.033308 -0.285104
v -0.008644 -0.038537 -0.284243
v 0.024817 -0.033308 -0.285104
v 0.055003 -0.018132 -0.287602
v 0.078958 0.005506 -0.291492
v 0.094338 0.035291 -0.296394
v 0.099638 0.068307 -0.301829
v 0.113400 0.174725 0.100562
v 0.095173 0.210023 0.094752
v -0.008644 0.135597 0.107002
v 0.066784 0.238036 0.090142
v 0.031011 0.256021 0.087181
v -0.008644 0.135597 0.107002
v -0.008644 0.262219 0.086161
v -0.048299 0.256021 0.087181
v -0.008644 0.135597 0.107002
v -0.084072 0.238036 0.090142
v -0.112461 0.210023 0.094752
v -0.008644 0.135597 0.107002
v -0.130689 0.174725 0.100562
v -0.136969 0.135597 0.107002
v -0.008644 0.135597 0.107002
v -0.130689 0.096469 0.113442
v -0.112461 0.061171 0.119252
v -0.008644 0.135597 0.107002
v -0.084072 0.033158 0.123863
v -0.048299 0.015173 0.126823
v -0.008644 0.135597 0.107002
v -0.008644 0.008976 0.127843
v 0.031011 0.015173 0.126823
v -0.008644 0.135597 0.107002
v 0.066784 0.033158 0.123863
v 0.095173 0.061171 0.119252
v -0.008644 0.135597 0.107002
v 0.113400 0.096469 0.113442
v 0.119681 0.135597 0.107002
v -0.008644 0.135597 0.107002
vn 0.9511 0.3049 -0.0502
vn 0.8090 0.5800 -0.0955
vn 0.8104 0.5781 -0.0952
vn 0.9503 0.3071 -0.0505
vn 0.5878 0.7983 -0.1314
vn 0.5859 0.7996 -0.1316
vn 0.3090 0.9384 -0.1545
vn 0.3112 0.9377 -0.1543
vn -0.0000 0.9867 -0.1624
vn -0.0023 0.9867 -0.1624
vn -0.3090 0.9384 -0.1545
vn -0.3068 0.9391 -0.1546
vn -0.5878 0.7983 -0.1314
vn -0.5897 0.7969 -0.1312
vn -0.8090 0.5800 -0.0955
vn -0.8077 0.5818 -0.0958
vn -0.9511 0.3049 -0.0502
vn -0.9518 0.3027 -0.0498
vn -1.0000 -0.0000 -0.0000
vn -1.0000 0.0023 -0.0004
vn -0.9511 -0.3049 0.0502
vn -0.9503 -0.3071 0.0505
vn -0.8090 -0.5800 0.0955
vn -0.8104 -0.5781 0.0952
vn -0.5878 -0.7983 0.1314
vn -0.5859 -0.7996 0.1316
vn -0.3090 -0.9384 0.1545
vn -0.3112 -0.9377 0.1543
vn -0.0000 -0.9867 0.1624
vn 0.0023 -0.9867 0.1624
vn 0.3090 -0.9384 0.1545
vn 0.3068 -0.9391 0.1546
vn 0.5878 -0.7983 0.1314
vn 0.5897 -0.7969 0.1312
vn 0.8090 -0.5800 0.0955
vn 0.8077 -0.5818 0.0958
vn 0.9511 -0.3049 0.0502
vn 0.9518 -0.3027 0.0498
vn 1.0000 -0.0000 -0.0000
vn 1.0000 -0.0023 0.0004
vn -0.0000 -0.1624 -0.9867
vn -0.0000 0.1624 0.9867
vn 0.8910 0.4480 -0.0737
vn 0.4540 0.8792 -0.1447
vn -0.1564 0.9746 -0.1604
vn -0.7071 0.6977 -0.1148
vn -0.9877 0.1544 -0.0254
vn -0.8910 -0.4480 0.0737
vn -0.4540 -0.8792 0.1447
vn 0.1564 -0.9746 0.1604
vn 0.7071 -0.6977 0.1148
vn 0.9877 -0.1544 0.0254
vt 0.375000 0.312500
vt 0.387500 0.312500
vt 0.387500 0.688440
vt 0.375000 0.688440
vt 0.400000 0.312500
vt 0.400000 0.688440
vt 0.412500 0.312500
vt 0.412500 0.688440
vt 0.425000 0.312500
vt 0.425000 0.688440
vt 0.437500 0.312500
vt 0.437500 0.688440
vt 0.450000 0.312500
vt 0.450000 0.688440
vt 0.462500 0.312500
vt 0.462500 0.688440
vt 0.475000 0.312500
vt 0.475000 0.688440
vt 0.487500 0.312500
vt 0.487500 0.688440
vt 0.500000 0.312500
vt 0.500000 0.688440
vt 0.512500 0.312500
vt 0.512500 0.688440
vt 0.525000 0.312500
vt 0.525000 0.688440
vt 0.537500 0.312500
vt 0.537500 0.688440
vt 0.550000 0.312500
vt 0.550000 0.688440
vt 0.562500 0.312500
vt 0.562500 0.688440
vt 0.575000 0.312500
vt 0.575000 0.688440
vt 0.587500 0.312500
vt 0.587500 0.688440
vt 0.600000 0.312500
vt 0.600000 0.688440
vt 0.612500 0.312500
vt 0.612500 0.688440
vt 0.625000 0.312500
vt 0.625000 0.688440
vt 0.626409 0.064408
vt 0.648603 0.107966
vt 0.500000 0.150000
vt 0.591842 0.029841
vt 0.548284 0.007647
vt 0.500000 -0.000000
vt 0.451716 0.007647
vt 0.408159 0.029841
vt 0.373591 0.064409
vt 0.351397 0.107966
vt 0.343750 0.156250
vt 0.351397 0.204534
vt 0.373591 0.248091
vt 0.408159 0.282659
vt 0.451716 0.304853
vt 0.500000 0.312500
vt 0.548284 0.304853
vt 0.591841 0.282659
vt 0.626409 0.248091
vt 0.648603 0.204534
vt 0.656250 0.156250
vt 0.648603 0.892034
vt 0.626409 0.935591
vt 0.500000 0.837500
vt 0.591841 0.970159
vt 0.548284 0.992353
vt 0.500000 1.000000
vt 0.451716 0.992353
vt 0.408159 0.970159
vt 0.373591 0.935591
vt 0.351397 0.892034
vt 0.343750 0.843750
vt 0.351397 0.795466
vt 0.373591 0.751909
vt 0.408159 0.717341
vt 0.451716 0.695147
vt 0.500000 0.687500
vt 0.548284 0.695147
vt 0.591842 0.717341
vt 0.626409 0.751908
vt 0.648603 0.795466
vt 0.656250 0.843750
s 1
usemtl blueshade
f 1/1/1 2/2/2 22/3/3 21/4/4
f 2/2/2 3/5/5 23/6/6 22/3/3
f 3/5/5 4/7/7 24/8/8 23/6/6
f 4/7/7 5/9/9 25/10/10 24/8/8
f 5/9/9 6/11/11 26/12/12 25/10/10
f 6/11/11 7/13/13 27/14/14 26/12/12
f 7/13/13 8/15/15 28/16/16 27/14/14
f 8/15/15 9/17/17 29/18/18 28/16/16
f 9/17/17 10/19/19 30/20/20 29/18/18
f 10/19/19 11/21/21 31/22/22 30/20/20
f 11/21/21 12/23/23 32/24/24 31/22/22
f 12/23/23 13/25/25 33/26/26 32/24/24
f 13/25/25 14/27/27 34/28/28 33/26/26
f 14/27/27 15/29/29 35/30/30 34/28/28
f 15/29/29 16/31/31 36/32/32 35/30/30
f 16/31/31 17/33/33 37/34/34 36/32/32
f 17/33/33 18/35/35 38/36/36 37/34/34
f 18/35/35 19/37/37 39/38/38 38/36/36
f 19/37/37 20/39/39 40/40/40 39/38/38
f 20/39/39 1/41/1 21/42/4 40/40/40
f 83/64/42 84/65/42 85/66/42
f 22/65/42 23/67/42 41/66/42
f 86/67/42 87/68/42 88/66/42
f 24/68/42 25/69/42 41/66/42
f 89/69/42 90/70/42 91/66/42
f 26/70/42 27/71/42 41/66/42
f 92/71/42 93/72/42 94/66/42
f 28/72/42 29/73/42 41/66/42
f 95/73/42 96/74/42 97/66/42
f 30/74/42 31/75/42 41/66/42
f 98/75/42 99/76/42 100/66/42
f 32/76/42 33/77/42 41/66/42
f 101/77/42 102/78/42 103/66/42
f 34/78/42 35/79/42 41/66/42
f 104/79/42 105/80/42 106/66/42
f 36/80/42 37/81/42 41/66/42
f 107/81/42 108/82/42 109/66/42
f 38/82/42 39/83/42 41/66/42
f 110/83/42 111/84/42 112/66/42
f 40/84/42 21/64/42 41/66/42
f 2/43/41 1/44/41 42/44/41 43/43/41
f 3/46/41 2/43/41 43/43/41 44/46/41
f 4/47/41 3/46/41 44/46/41 45/47/41
f 5/48/41 4/47/41 45/47/41 46/48/41
f 6/49/41 5/48/41 46/48/41 47/49/41
f 7/50/41 6/49/41 47/49/41 48/50/41
f 8/51/41 7/50/41 48/50/41 49/51/41
f 9/52/41 8/51/41 49/51/41 50/52/41
f 10/53/41 9/52/41 50/52/41 51/53/41
f 11/54/41 10/53/41 51/53/41 52/54/41
f 12/55/41 11/54/41 52/54/41 53/55/41
f 13/56/41 12/55/41 53/55/41 54/56/41
f 14/57/41 13/56/41 54/56/41 55/57/41
f 15/58/41 14/57/41 55/57/41 56/58/41
f 16/59/41 15/58/41 56/58/41 57/59/41
f 17/60/41 16/59/41 57/59/41 58/60/41
f 18/61/41 17/60/41 58/60/41 59/61/41
f 19/62/41 18/61/41 59/61/41 60/62/41
f 20/63/41 19/62/41 60/62/41 61/63/41
f 1/44/41 20/63/41 61/63/41 42/44/41
f 43/43/23 42/44/21 62/44/21 63/43/23
f 44/46/25 43/43/23 63/43/23 65/46/25
f 45/47/27 44/46/25 65/46/25 66/47/27
f 46/48/29 45/47/27 66/47/27 67/48/29
f 47/49/31 46/48/29 67/48/29 68/49/31
f 48/50/33 47/49/31 68/49/31 69/50/33
f 49/51/35 48/50/33 69/50/33 70/51/35
f 50/52/37 49/51/35 70/51/35 71/52/37
f 51/53/39 50/52/37 71/52/37 72/53/39
f 52/54/1 51/53/39 72/53/39 73/54/1
f 53/55/2 52/54/1 73/54/1 74/55/2
f 54/56/5 53/55/2 74/55/2 75/56/5
f 55/57/7 54/56/5 75/56/5 76/57/7
f 56/58/9 55/57/7 76/57/7 77/58/9
f 57/59/11 56/58/9 77/58/9 78/59/11
f 58/60/13 57/59/11 78/59/11 79/60/13
f 59/61/15 58/60/13 79/60/13 80/61/15
f 60/62/17 59/61/15 80/61/15 81/62/17
f 61/63/19 60/62/17 81/62/17 82/63/19
f 42/44/21 61/63/19 82/63/19 62/44/21
f 21/64/4 22/65/3 84/65/43 83/64/43
f 22/65/13 41/66/13 85/66/13 84/65/13
f 41/66/31 21/64/31 83/64/31 85/66/31
f 23/67/6 24/68/8 87/68/44 86/67/44
f 24/68/17 41/66/17 88/66/17 87/68/17
f 41/66/35 23/67/35 86/67/35 88/66/35
f 25/69/10 26/70/12 90/70/45 89/69/45
f 26/70/21 41/66/21 91/66/21 90/70/21
f 41/66/39 25/69/39 89/69/39 91/66/39
f 27/71/14 28/72/16 93/72/46 92/71/46
f 28/72/25 41/66/25 94/66/25 93/72/25
f 41/66/2 27/71/2 92/71/2 94/66/2
f 29/73/18 30/74/20 96/74/47 95/73/47
f 30/74/29 41/66/29 97/66/29 96/74/29
f 41/66/7 29/73/7 95/73/7 97/66/7
f 31/75/22 32/76/24 99/76/48 98/75/48
f 32/76/33 41/66/33 100/66/33 99/76/33
f 41/66/11 31/75/11 98/75/11 100/66/11
f 33/77/26 34/78/28 102/78/49 101/77/49
f 34/78/37 41/66/37 103/66/37 102/78/37
f 41/66/15 33/77/15 101/77/15 103/66/15
f 35/79/30 36/80/32 105/80/50 104/79/50
f 36/80/1 41/66/1 106/66/1 105/80/1
f 41/66/19 35/79/19 104/79/19 106/66/19
f 37/81/34 38/82/36 108/82/51 107/81/51
f 38/82/5 41/66/5 109/66/5 108/82/5
f 41/66/23 37/81/23 107/81/23 109/66/23
f 39/83/38 40/84/40 111/84/52 110/83/52
f 40/84/9 41/66/9 112/66/9 111/84/9
f 41/66/27 39/83/27 110/83/27 112/66/27
usemtl light
f 63/43/41 62/44/41 64/45/41
f 65/46/41 63/43/41 64/45/41
f 66/47/41 65/46/41 64/45/41
f 67/48/41 66/47/41 64/45/41
f 68/49/41 67/48/41 64/45/41
f 69/50/41 68/49/41 64/45/41
f 70/51/41 69/50/41 64/45/41
f 71/52/41 70/51/41 64/45/41
f 72/53/41 71/52/41 64/45/41
f 73/54/41 72/53/41 64/45/41
f 74/55/41 73/54/41 64/45/41
f 75/56/41 74/55/41 64/45/41
f 76/57/41 75/56/41 64/45/41
f 77/58/41 76/57/41 64/45/41
f 78/59/41 77/58/41 64/45/41
f 79/60/41 78/59/41 64/45/41
f 80/61/41 79/60/41 64/45/41
f 81/62/41 80/61/41 64/45/41
f 82/63/41 81/62/41 64/45/41
f 62/44/41 82/63/41 64/45/41
o pCylinder2
v 0.071118 0.303095 -0.023575
v 0.060282 0.303095 -0.044842
v 0.043404 0.303095 -0.061720
v 0.022137 0.303095 -0.072556
v -0.001438 0.303095 -0.076290
v -0.025013 0.303095 -0.072556
v -0.046280 0.303095 -0.061720
v -0.063158 0.303095 -0.044842
v -0.073994 0.303095 -0.023575
v -0.077728 0.303095 -0.000000
v -0.073994 0.303095 0.023575
v -0.063158 0.303095 0.044842
v -0.046280 0.303095 0.061720
v -0.025013 0.303095 0.072556
v -0.001438 0.303095 0.076290
v 0.022137 0.303095 0.072556
v 0.043404 0.303095 0.061720
v 0.060282 0.303095 0.044842
v 0.071118 0.303095 0.023575
v 0.074852 0.303095 -0.000000
v 0.071118 0.333204 -0.023575
v 0.060282 0.333204 -0.044842
v 0.043404 0.333204 -0.061720
v 0.022137 0.333204 -0.072556
v -0.001438 0.333204 -0.076290
v -0.025013 0.333204 -0.072556
v -0.046280 0.333204 -0.061720
v -0.063158 0.333204 -0.044842
v -0.073994 0.333204 -0.023575
v -0.077728 0.333204 -0.000000
v -0.073994 0.333204 0.023575
v -0.063158 0.333204 0.044842
v -0.046280 0.333204 0.061720
v -0.025013 0.333204 0.072556
v -0.001438 0.333204 0.076290
v 0.022137 0.333204 0.072556
v 0.043404 0.333204 0.061720
v 0.060282 0.333204 0.044842
v 0.071118 0.333204 0.023575
v 0.074852 0.333204 -0.000000
v -0.001438 0.303095 -0.000000
v -0.001438 0.333204 -0.000000
vn 0.9511 -0.0000 -0.3090
vn 0.8090 -0.0000 -0.5878
vn 0.5878 -0.0000 -0.8090
vn 0.3090 -0.0000 -0.9511
vn -0.0000 -0.0000 -1.0000
vn -0.3090 -0.0000 -0.9511
vn -0.5878 -0.0000 -0.8090
vn -0.8090 -0.0000 -0.5878
vn -0.9511 -0.0000 -0.3090
vn -1.0000 -0.0000 -0.0000
vn -0.9511 -0.0000 0.3090
vn -0.8090 -0.0000 0.5878
vn -0.5878 -0.0000 0.8090
vn -0.3090 -0.0000 0.9511
vn -0.0000 -0.0000 1.0000
vn 0.3090 -0.0000 0.9511
vn 0.5878 -0.0000 0.8090
vn 0.8090 -0.0000 0.5878
vn 0.9511 -0.0000 0.3090
vn 1.0000 -0.0000 -0.0000
vn -0.0000 -1.0000 -0.0000
vn -0.0000 1.0000 -0.0000
vt 0.375000 0.312500
vt 0.387500 0.312500
vt 0.387500 0.688440
vt 0.375000 0.688440
vt 0.400000 0.312500
vt 0.400000 0.688440
vt 0.412500 0.312500
vt 0.412500 0.688440
vt 0.425000 0.312500
vt 0.425000 0.688440
vt 0.437500 0.312500
vt 0.437500 0.688440
vt 0.450000 0.312500
vt 0.450000 0.688440
vt 0.462500 0.312500
vt 0.462500 0.688440
vt 0.475000 0.312500
vt 0.475000 0.688440
vt 0.487500 0.312500
vt 0.487500 0.688440
vt 0.500000 0.312500
vt 0.500000 0.688440
vt 0.512500 0.312500
vt 0.512500 0.688440
vt 0.525000 0.312500
vt 0.525000 0.688440
vt 0.537500 0.312500
vt 0.537500 0.688440
vt 0.550000 0.312500
vt 0.550000 0.688440
vt 0.562500 0.312500
vt 0.562500 0.688440
vt 0.575000 0.312500
vt 0.575000 0.688440
vt 0.587500 0.312500
vt 0.587500 0.688440
vt 0.600000 0.312500
vt 0.600000 0.688440
vt 0.612500 0.312500
vt 0.612500 0.688440
vt 0.625000 0.312500
vt 0.625000 0.688440
vt 0.626409 0.064408
vt 0.648603 0.107966
vt 0.500000 0.150000
vt 0.591842 0.029841
vt 0.548284 0.007647
vt 0.500000 -0.000000
vt 0.451716 0.007647
vt 0.408159 0.029841
vt 0.373591 0.064409
vt 0.351397 0.107966
vt 0.343750 0.156250
vt 0.351397 0.204534
vt 0.373591 0.248091
vt 0.408159 0.282659
vt 0.451716 0.304853
vt 0.500000 0.312500
vt 0.548284 0.304853
vt 0.591841 0.282659
vt 0.626409 0.248091
vt 0.648603 0.204534
vt 0.656250 0.156250
vt 0.648603 0.892034
vt 0.626409 0.935591
vt 0.500000 0.837500
vt 0.591841 0.970159
vt 0.548284 0.992353
vt 0.500000 1.000000
vt 0.451716 0.992353
vt 0.408159 0.970159
vt 0.373591 0.935591
vt 0.351397 0.892034
vt 0.343750 0.843750
vt 0.351397 0.795466
vt 0.373591 0.751909
vt 0.408159 0.717341
vt 0.451716 0.695147
vt 0.500000 0.687500
vt 0.548284 0.695147
vt 0.591842 0.717341
vt 0.626409 0.751908
vt 0.648603 0.795466
vt 0.656250 0.843750
s 1
usemtl blackshade1
f 113/85/53 114/86/54 134/87/54 133/88/53
f 114/86/54 115/89/55 135/90/55 134/87/54
f 115/89/55 116/91/56 136/92/56 135/90/55
f 116/91/56 117/93/57 137/94/57 136/92/56
f 117/93/57 118/95/58 138/96/58 137/94/57
f 118/95/58 119/97/59 139/98/59 138/96/58
f 119/97/59 120/99/60 140/100/60 139/98/59
f 120/99/60 121/101/61 141/102/61 140/100/60
f 121/101/61 122/103/62 142/104/62 141/102/61
f 122/103/62 123/105/63 143/106/63 142/104/62
f 123/105/63 124/107/64 144/108/64 143/106/63
f 124/107/64 125/109/65 145/110/65 144/108/64
f 125/109/65 126/111/66 146/112/66 145/110/65
f 126/111/66 127/113/67 147/114/67 146/112/66
f 127/113/67 128/115/68 148/116/68 147/114/67
f 128/115/68 129/117/69 149/118/69 148/116/68
f 129/117/69 130/119/70 150/120/70 149/118/69
f 130/119/70 131/121/71 151/122/71 150/120/70
f 131/121/71 132/123/72 152/124/72 151/122/71
f 132/123/72 113/125/53 133/126/53 152/124/72
f 114/127/73 113/128/73 153/129/73
f 115/130/73 114/127/73 153/129/73
f 116/131/73 115/130/73 153/129/73
f 117/132/73 116/131/73 153/129/73
f 118/133/73 117/132/73 153/129/73
f 119/134/73 118/133/73 153/129/73
f 120/135/73 119/134/73 153/129/73
f 121/136/73 120/135/73 153/129/73
f 122/137/73 121/136/73 153/129/73
f 123/138/73 122/137/73 153/129/73
f 124/139/73 123/138/73 153/129/73
f 125/140/73 124/139/73 153/129/73
f 126/141/73 125/140/73 153/129/73
f 127/142/73 126/141/73 153/129/73
f 128/143/73 127/142/73 153/129/73
f 129/144/73 128/143/73 153/129/73
f 130/145/73 129/144/73 153/129/73
f 131/146/73 130/145/73 153/129/73
f 132/147/73 131/146/73 153/129/73
f 113/128/73 132/147/73 153/129/73
f 133/148/74 134/149/74 154/150/74
f 134/149/74 135/151/74 154/150/74
f 135/151/74 136/152/74 154/150/74
f 136/152/74 137/153/74 154/150/74
f 137/153/74 138/154/74 154/150/74
f 138/154/74 139/155/74 154/150/74
f 139/155/74 140/156/74 154/150/74
f 140/156/74 141/157/74 154/150/74
f 141/157/74 142/158/74 154/150/74
f 142/158/74 143/159/74 154/150/74
f 143/159/74 144/160/74 154/150/74
f 144/160/74 145/161/74 154/150/74
f 145/161/74 146/162/74 154/150/74
f 146/162/74 147/163/74 154/150/74
f 147/163/74 148/164/74 154/150/74
f 148/164/74 149/165/74 154/150/74
f 149/165/74 150/166/74 154/150/74
f 150/166/74 151/167/74 154/150/74
f 151/167/74 152/168/74 154/150/74
f 152/168/74 133/148/74 154/150/74
o pCylinder1
v 0.127503 0.028297 -0.018569
v 0.127503 0.036832 -0.035321
v 0.127503 0.050126 -0.048615
v 0.127503 0.066878 -0.057151
v 0.127503 0.085447 -0.060092
v 0.127503 0.104017 -0.057151
v 0.127503 0.120768 -0.048615
v 0.127503 0.134063 -0.035321
v 0.127503 0.142598 -0.018569
v 0.127503 0.145539 0.000000
v 0.127503 0.142598 0.018569
v 0.127503 0.134063 0.035321
v 0.127503 0.120768 0.048615
v 0.127503 0.104017 0.057151
v 0.127503 0.085447 0.060092
v 0.127503 0.066878 0.057151
v 0.127503 0.050126 0.048615
v 0.127503 0.036832 0.035321
v 0.127503 0.028297 0.018569
v 0.127503 0.025356 0.000000
v 0.147417 0.028297 -0.018569
v 0.147417 0.036832 -0.035321
v 0.147417 0.050126 -0.048615
v 0.147417 0.066878 -0.057151
v 0.147417 0.085447 -0.060092
v 0.147417 0.104017 -0.057151
v 0.147417 0.120768 -0.048615
v 0.147417 0.134063 -0.035321
v 0.147417 0.142598 -0.018569
v 0.147417 0.145539 0.000000
v 0.147417 0.142598 0.018569
v 0.147417 0.134063 0.035321
v 0.147417 0.120768 0.048615
v 0.147417 0.104017 0.057151
v 0.147417 0.085447 0.060092
v 0.147417 0.066878 0.057151
v 0.147417 0.050126 0.048615
v 0.147417 0.036832 0.035321
v 0.147417 0.028297 0.018569
v 0.147417 0.025356 0.000000
v 0.127503 0.085447 0.000000
v 0.147417 0.085447 0.000000
v 0.149039 0.050126 -0.048615
v 0.149039 0.066878 -0.057151
v 0.149039 0.085447 0.000000
v 0.149039 0.134063 -0.035321
v 0.149039 0.142598 -0.018569
v 0.149039 0.085447 0.000000
v 0.149039 0.120768 0.048615
v 0.149039 0.104017 0.057151
v 0.149039 0.085447 0.000000
v 0.149039 0.036832 0.035321
v 0.149039 0.028297 0.018569
v 0.149039 0.085447 0.000000
v 0.127636 0.104017 -0.057151
v 0.127636 0.085447 -0.060092
v 0.127636 0.066878 -0.057151
v 0.127636 0.050126 -0.048615
v 0.127636 0.036832 -0.035321
v 0.127636 0.028297 -0.018569
v 0.127636 0.025356 0.000000
v 0.127636 0.028297 0.018569
v 0.127636 0.036832 0.035321
v 0.127636 0.050126 0.048615
v 0.127636 0.066878 0.057151
v 0.127636 0.085447 0.060092
v 0.127636 0.104017 0.057151
v 0.127636 0.120768 0.048615
v 0.127636 0.134063 0.035321
v 0.127636 0.142598 0.018569
v 0.127636 0.145539 0.000000
v 0.127636 0.142598 -0.018569
v 0.127636 0.134063 -0.035321
v 0.127636 0.120768 -0.048615
v 0.147358 0.066878 -0.057151
v 0.147358 0.050126 -0.048615
v 0.147358 0.036832 -0.035321
v 0.147358 0.028297 -0.018569
v 0.147358 0.025356 0.000000
v 0.147358 0.028297 0.018569
v 0.147358 0.036832 0.035321
v 0.147358 0.050126 0.048615
v 0.147358 0.066878 0.057151
v 0.147358 0.085447 0.060092
v 0.147358 0.104017 0.057151
v 0.147358 0.120768 0.048615
v 0.147358 0.134063 0.035321
v 0.147358 0.142598 0.018569
v 0.147358 0.145539 0.000000
v 0.147358 0.142598 -0.018569
v 0.147358 0.134063 -0.035321
v 0.147358 0.120768 -0.048615
v 0.147358 0.104017 -0.057151
v 0.147358 0.085447 -0.060092
v 0.147417 0.085335 0.000037
v 0.149039 0.085335 0.000037
v 0.147417 0.085455 0.000022
v 0.149039 0.085455 0.000022
vn -0.0000 -0.9511 -0.3090
vn -0.0000 -0.8090 -0.5878
vn -0.0000 -0.5878 -0.8090
vn -0.0000 -0.3090 -0.9511
vn -0.0000 -0.0000 -1.0000
vn -0.0000 0.3090 -0.9511
vn -0.0000 0.5878 -0.8090
vn -0.0000 0.8090 -0.5878
vn -0.0000 0.9511 -0.3090
vn -0.0000 1.0000 -0.0000
vn -0.0000 0.9511 0.3090
vn -0.0000 0.8090 0.5878
vn -0.0000 0.5878 0.8090
vn -0.0000 0.3090 0.9511
vn -0.0000 -0.0000 1.0000
vn -0.0000 -0.3090 0.9511
vn -0.0000 -0.5878 0.8090
vn -0.0000 -0.8090 0.5878
vn -0.0000 -0.9511 0.3090
vn -0.0000 -1.0000 -0.0000
vn -1.0000 -0.0000 -0.0000
vn 1.0000 -0.0000 -0.0000
vn -0.0000 -0.4634 -0.8862
vn -0.0000 -0.4446 -0.8958
vn -0.0000 -0.4540 -0.8910
vn -0.0000 0.8862 -0.4634
vn -0.0000 0.8958 -0.4446
vn -0.0000 0.8910 -0.4540
vn -0.0000 0.4634 0.8862
vn -0.0000 0.4446 0.8958
vn -0.0000 0.4540 0.8910
vn -0.0000 -0.9510 0.3093
vn -0.0000 -0.8862 0.4634
vn -0.0000 -0.8958 0.4446
vn -0.0000 -0.8910 0.4540
vn -0.0000 -0.9508 0.3099
vt 0.830192 0.068521
vt 0.542572 0.067055
vt 0.542572 0.072500
vt 0.830192 0.073966
vt 0.250785 0.067868
vt 0.250785 0.073313
vt -0.016608 0.070879
vt -0.016608 0.076325
vt -0.233430 0.075795
vt -0.233430 0.081240
vt -0.378460 0.082134
vt -0.378460 0.087579
vt -0.437500 0.089275
vt -0.437500 0.094720
vt -0.404771 0.096519
vt -0.404771 0.101964
vt -0.283476 0.103158
vt -0.283476 0.108603
vt -0.085490 0.108541
vt -0.085490 0.113986
vt 0.169809 0.112142
vt 0.169809 0.117587
vt 0.457429 0.113608
vt 0.457429 0.119053
vt 0.749216 0.112795
vt 0.749216 0.118240
vt 1.016608 0.109784
vt 1.016608 0.115229
vt 1.233431 0.104868
vt 1.233431 0.110313
vt 1.378460 0.098530
vt 1.378460 0.103975
vt 1.437500 0.091389
vt 1.437500 0.096834
vt 1.404771 0.084144
vt 1.404771 0.089589
vt 1.283476 0.077505
vt 1.283476 0.082950
vt 1.085490 0.072122
vt 1.085490 0.077567
vt 0.500000 0.090332
vt 0.972842 0.642930
vt 0.902223 0.771868
vt 0.500000 0.500000
vt 0.792232 0.874195
vt 0.653636 0.939893
vt 0.500000 0.962530
vt 0.346365 0.939893
vt 0.207768 0.874195
vt 0.097777 0.771868
vt 0.027159 0.642930
vt 0.002825 0.500000
vt 0.027159 0.357070
vt 0.097777 0.228131
vt 0.207768 0.125805
vt 0.346365 0.060107
vt 0.499942 0.499833
vt 0.500000 0.037470
vt 0.653636 0.060107
vt 0.792232 0.125805
vt 0.902223 0.228131
vt 0.972841 0.357070
vt 0.500934 0.499718
vt 0.997175 0.500000
vt 0.426831 0.545120
vt 0.411284 0.553042
vt 0.394050 0.500000
vt 0.348929 0.532782
vt 0.341007 0.517234
vt 0.361268 0.454880
vt 0.376815 0.446958
vt 0.394043 0.499980
vt 0.439170 0.467218
vt 0.447092 0.482766
vt 0.394154 0.499966
vt -0.378460 0.899034
vt -0.233430 0.892695
vt -0.016608 0.887779
vt 0.250785 0.884768
vt 0.542572 0.883955
vt 0.830192 0.885421
vt 1.085490 0.889022
vt 1.283476 0.894405
vt 1.404771 0.901044
vt 1.437500 0.908288
vt 1.378460 0.915429
vt 1.233431 0.921768
vt 1.016608 0.926684
vt 0.749216 0.929695
vt 0.457429 0.930508
vt 0.169809 0.929042
vt -0.085490 0.925441
vt -0.283476 0.920058
vt -0.404771 0.913419
vt -0.437500 0.906174
vt -0.016608 0.890216
vt 0.250785 0.887205
vt 0.542572 0.886392
vt 0.830192 0.887858
vt 1.085490 0.891459
vt 1.283476 0.896842
vt 1.404771 0.903481
vt 1.437500 0.910725
vt 1.378460 0.917866
vt 1.233431 0.924205
vt 1.016608 0.929121
vt 0.749216 0.932132
vt 0.457429 0.932945
vt 0.169809 0.931479
vt -0.085490 0.927878
vt -0.283476 0.922495
vt -0.404771 0.915856
vt -0.437500 0.908611
vt -0.378460 0.901471
vt -0.233430 0.895132
s 1
usemtl blackshade1
f 155/169/75 156/170/76 213/171/76 214/172/75
f 156/170/76 157/173/77 212/174/77 213/171/76
f 157/173/77 158/175/78 211/176/78 212/174/77
f 158/175/78 159/177/79 210/178/79 211/176/78
f 159/177/79 160/179/80 209/180/80 210/178/79
f 160/179/80 161/181/81 228/182/81 209/180/80
f 161/181/81 162/183/82 227/184/82 228/182/81
f 162/183/82 163/185/83 226/186/83 227/184/82
f 163/185/83 164/187/84 225/188/84 226/186/83
f 164/187/84 165/189/85 224/190/85 225/188/84
f 165/189/85 166/191/86 223/192/86 224/190/85
f 166/191/86 167/193/87 222/194/87 223/192/86
f 167/193/87 168/195/88 221/196/88 222/194/87
f 168/195/88 169/197/89 220/198/89 221/196/88
f 169/197/89 170/199/90 219/200/90 220/198/89
f 170/199/90 171/201/91 218/202/91 219/200/90
f 171/201/91 172/203/92 217/204/92 218/202/91
f 172/203/92 173/205/93 216/206/93 217/204/92
f 173/205/93 174/207/94 215/208/94 216/206/93
f 174/207/94 155/169/75 214/172/75 215/208/94
f 156/170/95 155/169/95 195/209/95
f 157/173/95 156/170/95 195/209/95
f 158/175/95 157/173/95 195/209/95
f 159/177/95 158/175/95 195/209/95
f 160/179/95 159/177/95 195/209/95
f 161/181/95 160/179/95 195/209/95
f 162/183/95 161/181/95 195/209/95
f 163/185/95 162/183/95 195/209/95
f 164/187/95 163/185/95 195/209/95
f 165/189/95 164/187/95 195/209/95
f 166/191/95 165/189/95 195/209/95
f 167/193/95 166/191/95 195/209/95
f 168/195/95 167/193/95 195/209/95
f 169/197/95 168/195/95 195/209/95
f 170/199/95 169/197/95 195/209/95
f 171/201/95 170/199/95 195/209/95
f 172/203/95 171/201/95 195/209/95
f 173/205/95 172/203/95 195/209/95
f 174/207/95 173/205/95 195/209/95
f 155/169/95 174/207/95 195/209/95
f 175/210/96 176/211/96 196/212/96
f 176/211/96 177/213/96 196/212/96
f 197/213/96 198/214/96 199/212/96
f 178/214/96 179/215/96 196/212/96
f 179/215/96 180/216/96 196/212/96
f 180/216/96 181/217/96 196/212/96
f 181/217/96 182/218/96 196/212/96
f 200/218/96 201/219/96 202/212/96
f 183/219/96 184/220/96 196/212/96
f 184/220/96 185/221/96 196/212/96
f 185/221/96 186/222/96 196/212/96
f 186/222/96 187/223/96 196/212/96
f 203/223/96 204/224/96 252/225/96 205/212/96
f 188/224/96 189/226/96 196/212/96 251/225/96
f 189/226/96 190/227/96 196/212/96
f 190/227/96 191/228/96 196/212/96
f 191/228/96 192/229/96 196/212/96
f 206/229/96 207/230/96 250/231/96 208/212/96
f 193/230/96 194/232/96 196/212/96 249/231/96
f 194/232/96 175/210/96 196/212/96
f 177/233/97 178/234/98 198/234/99 197/233/99
f 178/234/83 196/235/83 199/235/83 198/234/83
f 196/235/92 177/233/92 197/233/92 199/235/92
f 182/236/100 183/237/101 201/237/102 200/236/102
f 183/237/88 196/235/88 202/235/88 201/237/88
f 196/235/77 182/236/77 200/236/77 202/235/77
f 187/238/103 188/239/104 204/239/105 203/238/105
f 188/239/93 251/240/106 252/240/106 204/239/93
f 196/235/82 187/238/82 203/238/82 205/235/82
f 192/241/107 193/242/108 207/242/109 206/241/109
f 193/242/78 249/243/78 250/243/78 207/242/78
f 196/235/87 192/241/87 206/241/87 208/235/87
f 210/178/79 209/180/80 247/244/80 248/245/79
f 211/176/78 210/178/79 248/245/79 229/246/78
f 212/174/77 211/176/78 229/246/78 230/247/77
f 213/171/76 212/174/77 230/247/77 231/248/76
f 214/172/75 213/171/76 231/248/76 232/249/75
f 215/208/94 214/172/75 232/249/75 233/250/94
f 216/206/93 215/208/94 233/250/94 234/251/93
f 217/204/92 216/206/93 234/251/93 235/252/92
f 218/202/91 217/204/92 235/252/92 236/253/91
f 219/200/90 218/202/91 236/253/91 237/254/90
f 220/198/89 219/200/90 237/254/90 238/255/89
f 221/196/88 220/198/89 238/255/89 239/256/88
f 222/194/87 221/196/88 239/256/88 240/257/87
f 223/192/86 222/194/87 240/257/87 241/258/86
f 224/190/85 223/192/86 241/258/86 242/259/85
f 225/188/84 224/190/85 242/259/85 243/260/84
f 226/186/83 225/188/84 243/260/84 244/261/83
f 227/184/82 226/186/83 244/261/83 245/262/82
f 228/182/81 227/184/82 245/262/82 246/263/81
f 209/180/80 228/182/81 246/263/81 247/244/80
f 230/247/77 229/246/78 178/264/98 177/265/97
f 231/248/76 230/247/77 177/265/97 176/266/76
f 232/249/75 231/248/76 176/266/76 175/267/75
f 233/250/94 232/249/75 175/267/75 194/268/94
f 234/251/93 233/250/94 194/268/94 193/269/108
f 235/252/92 234/251/93 193/269/108 192/270/107
f 236/253/91 235/252/92 192/270/107 191/271/91
f 237/254/90 236/253/91 191/271/91 190/272/90
f 238/255/89 237/254/90 190/272/90 189/273/89
f 239/256/88 238/255/89 189/273/89 188/274/104
f 240/257/87 239/256/88 188/274/104 187/275/103
f 241/258/86 240/257/87 187/275/103 186/276/86
f 242/259/85 241/258/86 186/276/86 185/277/85
f 243/260/84 242/259/85 185/277/85 184/278/84
f 244/261/83 243/260/84 184/278/84 183/279/101
f 245/262/82 244/261/83 183/279/101 182/280/100
f 246/263/81 245/262/82 182/280/100 181/281/81
f 247/244/80 246/263/81 181/281/81 180/282/80
f 248/245/79 247/244/80 180/282/80 179/283/79
f 229/246/78 248/245/79 179/283/79 178/264/98
f 249/243/78 196/235/78 208/235/78 250/243/78
f 251/240/106 196/235/110 205/235/110 252/240/106
o pCube4
v -0.145799 0.060415 0.042168
v -0.130617 0.060415 0.042168
v -0.145799 0.285674 0.042168
v -0.130617 0.285674 0.042168
v -0.145799 0.285674 -0.042168
v -0.130617 0.285674 -0.042168
v -0.145799 0.060415 -0.042168
v -0.130617 0.060415 -0.042168
v -0.130617 0.285545 -0.042168
v -0.145799 0.285545 -0.042168
v -0.145799 0.285545 0.042168
v -0.130617 0.285545 0.042168
v -0.130617 0.060936 -0.042168
v -0.145799 0.060936 -0.042168
v -0.145799 0.060936 0.042168
v -0.130617 0.060936 0.042168
v 0.128032 0.285968 0.042168
v 0.128032 0.303152 0.042168
v -0.145583 0.285968 0.042168
v -0.145583 0.303152 0.042168
v -0.145583 0.285968 -0.042168
v -0.145583 0.303152 -0.042168
v 0.128032 0.285968 -0.042168
v 0.128032 0.303152 -0.042168
v -0.145426 0.303152 -0.042168
v -0.145426 0.285968 -0.042168
v -0.145426 0.285968 0.042168
v -0.145426 0.303152 0.042168
v 0.127399 0.303152 -0.042168
v 0.127399 0.285968 -0.042168
v 0.127399 0.285968 0.042168
v 0.127399 0.303152 0.042168
v 0.112934 0.060448 0.042168
v 0.128116 0.060448 0.042168
v 0.112934 0.285640 0.042168
v 0.128116 0.285640 0.042168
v 0.112934 0.285640 -0.042168
v 0.128116 0.285640 -0.042168
v 0.112934 0.060448 -0.042168
v 0.128116 0.060448 -0.042168
v 0.128116 0.285511 -0.042168
v 0.112934 0.285511 -0.042168
v 0.112934 0.285511 0.042168
v 0.128116 0.285511 0.042168
v 0.128116 0.060969 -0.042168
v 0.112934 0.060969 -0.042168
v 0.112934 0.060969 0.042168
v 0.128116 0.060969 0.042168
vn -0.0000 -0.0000 1.0000
vn -0.0000 -0.0000 -1.0000
vn -0.0000 -1.0000 -0.0000
vn 1.0000 -0.0000 -0.0000
vn -1.0000 -0.0000 -0.0000
vn -0.0000 1.0000 -0.0000
vt 0.375000 0.249857
vt 0.625000 0.249857
vt 0.625000 0.250000
vt 0.375000 0.250000
vt 0.375000 0.500000
vt 0.625000 0.500000
vt 0.625000 0.500143
vt 0.375000 0.500143
vt 0.375000 0.750000
vt 0.625000 0.750000
vt 0.625000 1.000000
vt 0.375000 1.000000
vt 0.875000 0.249857
vt 0.875000 0.250000
vt 0.125000 0.249857
vt 0.125000 0.250000
vt 0.625000 0.749422
vt 0.375000 0.749422
vt 0.125000 0.000578
vt 0.375000 0.000578
vt 0.625000 0.000578
vt 0.875000 0.000578
vt 0.125000 0.000000
vt 0.375000 0.000000
vt 0.625000 0.000000
vt 0.875000 0.000000
s 1
usemtl blackshade1
f 263/284/111 264/285/111 256/286/111 255/287/111
f 257/288/112 258/289/112 261/290/112 262/291/112
f 259/292/113 260/293/113 254/294/113 253/295/113
f 264/285/114 261/296/114 258/297/114 256/286/114
f 262/298/115 263/284/115 255/287/115 257/299/115
f 262/291/112 261/290/112 265/300/112 266/301/112
f 266/302/115 267/303/115 263/284/115 262/298/115
f 267/303/111 268/304/111 264/285/111 263/284/111
f 268/304/114 265/305/114 261/296/114 264/285/114
f 266/301/112 265/300/112 260/293/112 259/292/112
f 259/306/115 253/307/115 267/303/115 266/302/115
f 253/307/111 254/308/111 268/304/111 267/303/111
f 254/308/114 260/309/114 265/305/114 268/304/114
f 279/284/111 280/285/111 272/286/111 271/287/111
f 271/287/115 272/286/115 274/289/115 273/288/115
f 273/288/112 274/289/112 277/290/112 278/291/112
f 275/292/114 276/293/114 270/294/114 269/295/114
f 280/285/116 277/296/116 274/297/116 272/286/116
f 278/298/113 279/284/113 271/287/113 273/299/113
f 278/291/112 277/290/112 281/300/112 282/301/112
f 282/302/113 283/303/113 279/284/113 278/298/113
f 283/303/111 284/304/111 280/285/111 279/284/111
f 284/304/116 281/305/116 277/296/116 280/285/116
f 282/301/112 281/300/112 276/293/112 275/292/112
f 275/306/113 269/307/113 283/303/113 282/302/113
f 269/307/111 270/308/111 284/304/111 283/303/111
f 270/308/116 276/309/116 281/305/116 284/304/116
f 295/284/111 296/285/111 288/286/111 287/287/111
f 289/288/112 290/289/112 293/290/112 294/291/112
f 291/292/113 292/293/113 286/294/113 285/295/113
f 296/285/114 293/296/114 290/297/114 288/286/114
f 294/298/115 295/284/115 287/287/115 289/299/115
f 294/291/112 293/290/112 297/300/112 298/301/112
f 298/302/115 299/303/115 295/284/115 294/298/115
f 299/303/111 300/304/111 296/285/111 295/284/111
f 300/304/114 297/305/114 293/296/114 296/285/114
f 298/301/112 297/300/112 292/293/112 291/292/112
f 291/306/115 285/307/115 299/303/115 298/302/115
f 285/307/111 286/308/111 300/304/111 299/303/111
f 286/308/114 292/309/114 297/305/114 300/304/114
o pCylinder3
v -0.145400 0.142598 -0.018569
v -0.145400 0.134063 -0.035321
v -0.145400 0.120768 -0.048615
v -0.145400 0.104017 -0.057151
v -0.145400 0.085447 -0.060092
v -0.145400 0.066878 -0.057151
v -0.145400 0.050126 -0.048615
v -0.145400 0.036832 -0.035321
v -0.145400 0.028297 -0.018569
v -0.145400 0.025356 0.000000
v -0.145400 0.028297 0.018569
v -0.145400 0.036832 0.035321
v -0.145400 0.050126 0.048615
v -0.145400 0.066878 0.057151
v -0.145400 0.085447 0.060092
v -0.145400 0.104017 0.057151
v -0.145400 0.120768 0.048615
v -0.145400 0.134063 0.035321
v -0.145400 0.142598 0.018569
v -0.145400 0.145539 0.000000
v -0.165314 0.142598 -0.018569
v -0.165314 0.134063 -0.035321
v -0.165314 0.120768 -0.048615
v -0.165314 0.104017 -0.057151
v -0.165314 0.085447 -0.060092
v -0.165314 0.066878 -0.057151
v -0.165314 0.050126 -0.048615
v -0.165314 0.036832 -0.035321
v -0.165314 0.028297 -0.018569
v -0.165314 0.025356 0.000000
v -0.165314 0.028297 0.018569
v -0.165314 0.036832 0.035321
v -0.165314 0.050126 0.048615
v -0.165314 0.066878 0.057151
v -0.165314 0.085447 0.060092
v -0.165314 0.104017 0.057151
v -0.165314 0.120768 0.048615
v -0.165314 0.134063 0.035321
v -0.165314 0.142598 0.018569
v -0.165314 0.145539 0.000000
v -0.145400 0.085447 0.000000
v -0.165314 0.085447 0.000000
v -0.166936 0.120768 -0.048615
v -0.166936 0.104017 -0.057151
v -0.166936 0.085447 0.000000
v -0.166936 0.036832 -0.035321
v -0.166936 0.028297 -0.018569
v -0.166936 0.085447 0.000000
v -0.166936 0.050126 0.048615
v -0.166936 0.066878 0.057151
v -0.166936 0.085447 0.000000
v -0.166936 0.134063 0.035321
v -0.166936 0.142598 0.018569
v -0.166936 0.085447 0.000000
v -0.145532 0.066878 -0.057151
v -0.145532 0.085447 -0.060092
v -0.145532 0.104017 -0.057151
v -0.145532 0.120768 -0.048615
v -0.145532 0.134063 -0.035321
v -0.145532 0.142598 -0.018569
v -0.145532 0.145539 0.000000
v -0.145532 0.142598 0.018569
v -0.145532 0.134063 0.035321
v -0.145532 0.120768 0.048615
v -0.145532 0.104017 0.057151
v -0.145532 0.085447 0.060092
v -0.145532 0.066878 0.057151
v -0.145532 0.050126 0.048615
v -0.145532 0.036832 0.035321
v -0.145532 0.028297 0.018569
v -0.145532 0.025356 0.000000
v -0.145532 0.028297 -0.018569
v -0.145532 0.036832 -0.035321
v -0.145532 0.050126 -0.048615
v -0.165254 0.104017 -0.057151
v -0.165254 0.120768 -0.048615
v -0.165254 0.134063 -0.035321
v -0.165254 0.142598 -0.018569
v -0.165254 0.145539 0.000000
v -0.165254 0.142598 0.018569
v -0.165254 0.134063 0.035321
v -0.165254 0.120768 0.048615
v -0.165254 0.104017 0.057151
v -0.165254 0.085447 0.060092
v -0.165254 0.066878 0.057151
v -0.165254 0.050126 0.048615
v -0.165254 0.036832 0.035321
v -0.165254 0.028297 0.018569
v -0.165254 0.025356 0.000000
v -0.165254 0.028297 -0.018569
v -0.165254 0.036832 -0.035321
v -0.165254 0.050126 -0.048615
v -0.165254 0.066878 -0.057151
v -0.165254 0.085447 -0.060092
v -0.165314 0.085560 0.000037
v -0.166936 0.085560 0.000037
v -0.165314 0.085440 0.000022
v -0.166936 0.085440 0.000022
vn -0.0000 0.9511 -0.3090
vn -0.0000 0.8090 -0.5878
vn -0.0000 0.5878 -0.8090
vn -0.0000 0.3090 -0.9511
vn -0.0000 -0.0000 -1.0000
vn -0.0000 -0.3090 -0.9511
vn -0.0000 -0.5878 -0.8090
vn -0.0000 -0.8090 -0.5878
vn -0.0000 -0.9511 -0.3090
vn -0.0000 -1.0000 -0.0000
vn -0.0000 -0.9511 0.3090
vn -0.0000 -0.8090 0.5878
vn -0.0000 -0.5878 0.8090
vn -0.0000 -0.3090 0.9511
vn -0.0000 -0.0000 1.0000
vn -0.0000 0.3090 0.9511
vn -0.0000 0.5878 0.8090
vn -0.0000 0.8090 0.5878
vn -0.0000 0.9511 0.3090
vn -0.0000 1.0000 -0.0000
vn 1.0000 -0.0000 -0.0000
vn -1.0000 -0.0000 -0.0000
vn -0.0000 0.4634 -0.8862
vn -0.0000 0.4446 -0.8958
vn -0.0000 0.4540 -0.8910
vn -0.0000 -0.8862 -0.4634
vn -0.0000 -0.8958 -0.4446
vn -0.0000 -0.8910 -0.4540
vn -0.0000 -0.4634 0.8862
vn -0.0000 -0.4446 0.8958
vn -0.0000 -0.4540 0.8910
vn -0.0000 0.8862 0.4634
vn -0.0000 0.8958 0.4446
vn -0.0000 0.8910 0.4540
vn -0.0000 0.9509 0.3095
vt 0.830192 0.068521
vt 0.542572 0.067055
vt 0.542572 0.072500
vt 0.830192 0.073966
vt 0.250785 0.067868
vt 0.250785 0.073313
vt -0.016608 0.070879
vt -0.016608 0.076325
vt -0.233430 0.075795
vt -0.233430 0.081240
vt -0.378460 0.082134
vt -0.378460 0.087579
vt -0.437500 0.089275
vt -0.437500 0.094720
vt -0.404771 0.096519
vt -0.404771 0.101964
vt -0.283476 0.103158
vt -0.283476 0.108603
vt -0.085490 0.108541
vt -0.085490 0.113986
vt 0.169809 0.112142
vt 0.169809 0.117587
vt 0.457429 0.113608
vt 0.457429 0.119053
vt 0.749216 0.112795
vt 0.749216 0.118240
vt 1.016608 0.109784
vt 1.016608 0.115229
vt 1.233431 0.104868
vt 1.233431 0.110313
vt 1.378460 0.098530
vt 1.378460 0.103975
vt 1.437500 0.091389
vt 1.437500 0.096834
vt 1.404771 0.084144
vt 1.404771 0.089589
vt 1.283476 0.077505
vt 1.283476 0.082950
vt 1.085490 0.072122
vt 1.085490 0.077567
vt 0.500000 0.090332
vt 0.972842 0.642930
vt 0.902223 0.771868
vt 0.500000 0.500000
vt 0.792232 0.874195
vt 0.653636 0.939893
vt 0.500000 0.962530
vt 0.346365 0.939893
vt 0.207768 0.874195
vt 0.097777 0.771868
vt 0.027159 0.642930
vt 0.002825 0.500000
vt 0.027159 0.357070
vt 0.097777 0.228131
vt 0.207768 0.125805
vt 0.346365 0.060107
vt 0.499942 0.499833
vt 0.500000 0.037470
vt 0.653636 0.060107
vt 0.792232 0.125805
vt 0.902223 0.228131
vt 0.972841 0.357070
vt 0.500934 0.499718
vt 0.997175 0.500000
vt 0.426831 0.545120
vt 0.411284 0.553042
vt 0.394050 0.500000
vt 0.348929 0.532782
vt 0.341007 0.517234
vt 0.361268 0.454880
vt 0.376815 0.446958
vt 0.394043 0.499980
vt 0.439170 0.467218
vt 0.447092 0.482766
vt 0.394154 0.499966
vt -0.378460 0.899034
vt -0.233430 0.892695
vt -0.016608 0.887779
vt 0.250785 0.884768
vt 0.542572 0.883955
vt 0.830192 0.885421
vt 1.085490 0.889022
vt 1.283476 0.894405
vt 1.404771 0.901044
vt 1.437500 0.908288
vt 1.378460 0.915429
vt 1.233431 0.921768
vt 1.016608 0.926684
vt 0.749216 0.929695
vt 0.457429 0.930508
vt 0.169809 0.929042
vt -0.085490 0.925441
vt -0.283476 0.920058
vt -0.404771 0.913419
vt -0.437500 0.906174
vt -0.016608 0.890216
vt 0.250785 0.887205
vt 0.542572 0.886392
vt 0.830192 0.887858
vt 1.085490 0.891459
vt 1.283476 0.896842
vt 1.404771 0.903481
vt 1.437500 0.910725
vt 1.378460 0.917866
vt 1.233431 0.924205
vt 1.016608 0.929121
vt 0.749216 0.932132
vt 0.457429 0.932945
vt 0.169809 0.931479
vt -0.085490 0.927878
vt -0.283476 0.922495
vt -0.404771 0.915856
vt -0.437500 0.908611
vt -0.378460 0.901471
vt -0.233430 0.895132
s 1
usemtl blackshade1
f 301/310/117 302/311/118 359/312/118 360/313/117
f 302/311/118 303/314/119 358/315/119 359/312/118
f 303/314/119 304/316/120 357/317/120 358/315/119
f 304/316/120 305/318/121 356/319/121 357/317/120
f 305/318/121 306/320/122 355/321/122 356/319/121
f 306/320/122 307/322/123 374/323/123 355/321/122
f 307/322/123 308/324/124 373/325/124 374/323/123
f 308/324/124 309/326/125 372/327/125 373/325/124
f 309/326/125 310/328/126 371/329/126 372/327/125
f 310/328/126 311/330/127 370/331/127 371/329/126
f 311/330/127 312/332/128 369/333/128 370/331/127
f 312/332/128 313/334/129 368/335/129 369/333/128
f 313/334/129 314/336/130 367/337/130 368/335/129
f 314/336/130 315/338/131 366/339/131 367/337/130
f 315/338/131 316/340/132 365/341/132 366/339/131
f 316/340/132 317/342/133 364/343/133 365/341/132
f 317/342/133 318/344/134 363/345/134 364/343/133
f 318/344/134 319/346/135 362/347/135 363/345/134
f 319/346/135 320/348/136 361/349/136 362/347/135
f 320/348/136 301/310/117 360/313/117 361/349/136
f 302/311/137 301/310/137 341/350/137
f 303/314/137 302/311/137 341/350/137
f 304/316/137 303/314/137 341/350/137
f 305/318/137 304/316/137 341/350/137
f 306/320/137 305/318/137 341/350/137
f 307/322/137 306/320/137 341/350/137
f 308/324/137 307/322/137 341/350/137
f 309/326/137 308/324/137 341/350/137
f 310/328/137 309/326/137 341/350/137
f 311/330/137 310/328/137 341/350/137
f 312/332/137 311/330/137 341/350/137
f 313/334/137 312/332/137 341/350/137
f 314/336/137 313/334/137 341/350/137
f 315/338/137 314/336/137 341/350/137
f 316/340/137 315/338/137 341/350/137
f 317/342/137 316/340/137 341/350/137
f 318/344/137 317/342/137 341/350/137
f 319/346/137 318/344/137 341/350/137
f 320/348/137 319/346/137 341/350/137
f 301/310/137 320/348/137 341/350/137
f 321/351/138 322/352/138 342/353/138
f 322/352/138 323/354/138 342/353/138
f 343/354/138 344/355/138 345/353/138
f 324/355/138 325/356/138 342/353/138
f 325/356/138 326/357/138 342/353/138
f 326/357/138 327/358/138 342/353/138
f 327/358/138 328/359/138 342/353/138
f 346/359/138 347/360/138 348/353/138
f 329/360/138 330/361/138 342/353/138
f 330/361/138 331/362/138 342/353/138
f 331/362/138 332/363/138 342/353/138
f 332/363/138 333/364/138 342/353/138
f 349/364/138 350/365/138 398/366/138 351/353/138
f 334/365/138 335/367/138 342/353/138 397/366/138
f 335/367/138 336/368/138 342/353/138
f 336/368/138 337/369/138 342/353/138
f 337/369/138 338/370/138 342/353/138
f 352/370/138 353/371/138 396/372/138 354/353/138
f 339/371/138 340/373/138 342/353/138 395/372/138
f 340/373/138 321/351/138 342/353/138
f 323/374/139 324/375/140 344/375/141 343/374/141
f 324/375/125 342/376/125 345/376/125 344/375/125
f 342/376/134 323/374/134 343/374/134 345/376/134
f 328/377/142 329/378/143 347/378/144 346/377/144
f 329/378/130 342/376/130 348/376/130 347/378/130
f 342/376/119 328/377/119 346/377/119 348/376/119
f 333/379/145 334/380/146 350/380/147 349/379/147
f 334/380/135 397/381/135 398/381/135 350/380/135
f 342/376/124 333/379/124 349/379/124 351/376/124
f 338/382/148 339/383/149 353/383/150 352/382/150
f 339/383/120 395/384/120 396/384/120 353/383/120
f 342/376/129 338/382/129 352/382/129 354/376/129
f 356/319/121 355/321/122 393/385/122 394/386/121
f 357/317/120 356/319/121 394/386/121 375/387/120
f 358/315/119 357/317/120 375/387/120 376/388/119
f 359/312/118 358/315/119 376/388/119 377/389/118
f 360/313/117 359/312/118 377/389/118 378/390/117
f 361/349/136 360/313/117 378/390/117 379/391/136
f 362/347/135 361/349/136 379/391/136 380/392/135
f 363/345/134 362/347/135 380/392/135 381/393/134
f 364/343/133 363/345/134 381/393/134 382/394/133
f 365/341/132 364/343/133 382/394/133 383/395/132
f 366/339/131 365/341/132 383/395/132 384/396/131
f 367/337/130 366/339/131 384/396/131 385/397/130
f 368/335/129 367/337/130 385/397/130 386/398/129
f 369/333/128 368/335/129 386/398/129 387/399/128
f 370/331/127 369/333/128 387/399/128 388/400/127
f 371/329/126 370/331/127 388/400/127 389/401/126
f 372/327/125 371/329/126 389/401/126 390/402/125
f 373/325/124 372/327/125 390/402/125 391/403/124
f 374/323/123 373/325/124 391/403/124 392/404/123
f 355/321/122 374/323/123 392/404/123 393/385/122
f 376/388/119 375/387/120 324/405/140 323/406/139
f 377/389/118 376/388/119 323/406/139 322/407/118
f 378/390/117 377/389/118 322/407/118 321/408/117
f 379/391/136 378/390/117 321/408/117 340/409/136
f 380/392/135 379/391/136 340/409/136 339/410/149
f 381/393/134 380/392/135 339/410/149 338/411/148
f 382/394/133 381/393/134 338/411/148 337/412/133
f 383/395/132 382/394/133 337/412/133 336/413/132
f 384/396/131 383/395/132 336/413/132 335/414/131
f 385/397/130 384/396/131 335/414/131 334/415/146
f 386/398/129 385/397/130 334/415/146 333/416/145
f 387/399/128 386/398/129 333/416/145 332/417/128
f 388/400/127 387/399/128 332/417/128 331/418/127
f 389/401/126 388/400/127 331/418/127 330/419/126
f 390/402/125 389/401/126 330/419/126 329/420/143
f 391/403/124 390/402/125 329/420/143 328/421/142
f 392/404/123 391/403/124 328/421/142 327/422/123
f 393/385/122 392/404/123 327/422/123 326/423/122
f 394/386/121 393/385/122 326/423/122 325/424/121
f 375/387/120 394/386/121 325/424/121 324/405/140
f 395/384/120 342/376/120 354/376/120 396/384/120
f 397/381/135 342/376/151 351/376/151 398/381/135
