# Blender 5.1.1
# www.blender.org
mtllib janela.mtl
o Cube
v 1.000000 1.000000 -1.000000
v 1.000000 -1.000000 -1.000000
v 1.000000 1.000000 1.000000
v 1.000000 -1.000000 1.000000
v -1.000000 1.000000 -1.000000
v -1.000000 -1.000000 -1.000000
v -1.000000 1.000000 1.000000
v -1.000000 -1.000000 1.000000
vn -0.0000 1.0000 -0.0000
vn -0.0000 -0.0000 1.0000
vn -1.0000 -0.0000 -0.0000
vn -0.0000 -1.0000 -0.0000
vn 1.0000 -0.0000 -0.0000
vn -0.0000 -0.0000 -1.0000
vt 0.625000 0.500000
vt 0.875000 0.500000
vt 0.875000 0.750000
vt 0.625000 0.750000
vt 0.375000 0.750000
vt 0.625000 1.000000
vt 0.375000 1.000000
vt 0.375000 0.000000
vt 0.625000 0.000000
vt 0.625000 0.250000
vt 0.375000 0.250000
vt 0.125000 0.500000
vt 0.375000 0.500000
vt 0.125000 0.750000
s 0
usemtl Material
f 1/1/1 5/2/1 7/3/1 3/4/1
f 4/5/2 3/4/2 7/6/2 8/7/2
f 8/8/3 7/9/3 5/10/3 6/11/3
f 6/12/4 2/13/4 4/5/4 8/14/4
f 2/13/5 1/1/5 3/4/5 4/5/5
f 6/11/6 5/10/6 1/1/6 2/13/6
o woodwall1_wood_0_1
v 36.783733 6.788715 -258.395477
v 34.629353 218.277191 -258.395508
v 71.971970 195.297119 -258.395477
v 11.044087 160.467957 -254.515732
v 32.228840 97.990875 -254.515717
v 13.557532 1.761824 -254.515717
v -9.509336 207.864349 -258.395508
v 15.266051 220.072510 -258.395508
v -10.227462 2.839015 -258.395477
v 16.343243 1.761824 -258.395477
v 37.614796 108.762779 -254.515732
v 37.614796 90.450531 -254.515717
v 36.896667 156.518250 -254.515732
v 39.769176 4.275270 -254.515717
v 32.228840 97.990883 -248.331558
v 11.044087 160.467957 -248.331573
v 13.557532 1.761825 -248.331558
v 37.614796 108.762787 -248.331573
v 37.614796 90.450539 -248.331558
v 36.896667 156.518250 -248.331573
v 39.769176 4.275270 -248.331558
v 15.266051 220.072510 -252.211319
v -9.509336 207.864349 -252.211319
v -10.227462 2.839015 -252.211304
v 16.343243 1.761824 -252.211304
v 107.519264 0.684633 -258.395477
v 104.287689 195.297119 -258.395477
v 71.612907 218.636246 -258.395508
v 34.629353 218.277191 -252.211319
v 36.783733 6.788715 -252.211304
v 71.971970 195.297119 -252.211319
v 107.519264 0.684634 -252.211304
v 104.287689 195.297119 -252.211319
v 71.612907 218.636246 -252.211319
v -7.933072 3.406864 -248.019028
v -7.933072 210.935669 -248.019043
v -40.412987 210.935669 -248.019043
v -40.412987 3.406864 -248.019028
v -7.933072 3.406863 -268.771912
v -7.933072 210.935669 -268.771942
v -7.933072 210.935669 -248.019043
v -7.933072 3.406864 -248.019028
v -40.412987 3.406863 -268.771912
v -40.412987 210.935669 -268.771942
v -7.933072 210.935669 -268.771942
v -7.933072 3.406863 -268.771912
v -40.412987 3.406864 -248.019028
v -40.412987 210.935669 -248.019043
v -40.412987 210.935669 -268.771942
v -40.412987 3.406863 -268.771912
v -7.933072 210.935669 -248.019043
v -7.933072 210.935669 -268.771942
v -40.412987 210.935669 -268.771942
v -40.412987 210.935669 -248.019043
v -7.933072 3.406863 -268.771912
v -7.933072 3.406864 -248.019028
v -40.412987 3.406864 -248.019028
v -40.412987 3.406863 -268.771912
v 93.211540 3.406863 -268.771912
v 93.211540 217.267136 -268.771942
v 125.691452 217.267136 -268.771942
v 125.691452 3.406863 -268.771912
v 93.211540 3.406864 -248.019028
v 93.211540 217.267136 -248.019043
v 93.211540 217.267136 -268.771942
v 93.211540 3.406863 -268.771912
v 125.691452 3.406864 -248.019028
v 125.691452 217.267136 -248.019043
v 93.211540 217.267136 -248.019043
v 93.211540 3.406864 -248.019028
v 125.691452 3.406863 -268.771912
v 125.691452 217.267136 -268.771942
v 125.691452 217.267136 -248.019043
v 125.691452 3.406864 -248.019028
v 93.211540 217.267136 -268.771942
v 93.211540 217.267136 -248.019043
v 125.691452 217.267136 -248.019043
v 125.691452 217.267136 -268.771942
v 93.211540 3.406864 -248.019028
v 93.211540 3.406863 -268.771912
v 125.691452 3.406863 -268.771912
v 125.691452 3.406864 -248.019028
v -10.227462 2.839015 -252.211304
v -10.227462 2.839015 -258.395477
v 16.343243 1.761824 -258.395477
v 16.343243 1.761824 -252.211304
v 13.557532 1.761825 -248.331558
v 13.557532 1.761824 -254.515717
v 39.769176 4.275270 -254.515717
v 39.769176 4.275270 -248.331558
v 16.343243 1.761824 -252.211304
v 16.343243 1.761824 -258.395477
v 15.266051 220.072510 -258.395508
v 15.266051 220.072510 -252.211319
v 39.769176 4.275270 -248.331558
v 39.769176 4.275270 -254.515717
v 37.614796 90.450531 -254.515717
v 37.614796 90.450539 -248.331558
v 15.266051 220.072510 -252.211319
v 15.266051 220.072510 -258.395508
v -9.509336 207.864349 -258.395508
v -9.509336 207.864349 -252.211319
v -9.509336 207.864349 -252.211319
v -9.509336 207.864349 -258.395508
v -10.227462 2.839015 -258.395477
v -10.227462 2.839015 -252.211304
v 11.044087 160.467957 -248.331573
v 11.044087 160.467957 -254.515732
v 13.557532 1.761824 -254.515717
v 13.557532 1.761825 -248.331558
v 32.228840 97.990883 -248.331558
v 32.228840 97.990875 -254.515717
v 37.614796 108.762779 -254.515732
v 37.614796 108.762787 -248.331573
v 32.228840 97.990875 -254.515717
v 32.228840 97.990883 -248.331558
v 36.896667 156.518250 -248.331573
v 36.896667 156.518250 -254.515732
v 11.044087 160.467957 -254.515732
v 11.044087 160.467957 -248.331573
v 36.896667 156.518250 -254.515732
v 36.896667 156.518250 -248.331573
v 34.629353 218.277191 -252.211319
v 34.629353 218.277191 -258.395508
v 36.783733 6.788715 -258.395477
v 36.783733 6.788715 -252.211304
v 36.783733 6.788715 -252.211304
v 36.783733 6.788715 -258.395477
v 107.519264 0.684633 -258.395477
v 107.519264 0.684634 -252.211304
v 104.287689 195.297119 -252.211319
v 104.287689 195.297119 -258.395477
v 71.971970 195.297119 -258.395477
v 71.971970 195.297119 -252.211319
v 107.519264 0.684634 -252.211304
v 107.519264 0.684633 -258.395477
v 104.287689 195.297119 -258.395477
v 104.287689 195.297119 -252.211319
v 71.612907 218.636246 -252.211319
v 71.612907 218.636246 -258.395508
v 34.629353 218.277191 -258.395508
v 34.629353 218.277191 -252.211319
v 71.971970 195.297119 -252.211319
v 71.971970 195.297119 -258.395477
v 71.612907 218.636246 -258.395508
v 71.612907 218.636246 -252.211319
vn -0.0000 -0.0000 -1.0000
vn -0.0000 -0.0000 1.0000
vn 1.0000 -0.0000 -0.0000
vn -1.0000 -0.0000 -0.0000
vn -0.0000 1.0000 -0.0000
vn -0.0000 -1.0000 -0.0000
vn -0.0405 -0.9992 -0.0000
vn 0.0955 -0.9954 -0.0000
vn 1.0000 0.0049 -0.0000
vn 0.9997 0.0250 -0.0000
vn 0.9985 0.0538 0.0001
vn 0.9919 0.1267 -0.0000
vn -0.4420 0.8970 -0.0000
vn -1.0000 0.0035 -0.0000
vn -0.9999 -0.0158 -0.0000
vn 0.8944 -0.4472 -0.0000
vn 0.9896 -0.1436 -0.0000
vn 0.9993 -0.0372 -0.0000
vn 0.8137 0.5812 -0.0000
vn 0.1510 0.9885 -0.0000
vn 0.9999 0.0150 -0.0000
vn -0.9999 -0.0102 -0.0000
vn -0.0860 -0.9963 -0.0000
vn 0.9999 0.0166 -0.0000
vn -0.0097 1.0000 -0.0000
vn 0.9999 0.0154 -0.0000
vt 0.038864 0.233441
vt 0.640634 0.234835
vt 0.574415 0.129103
vt 0.480330 0.639004
vt 0.659117 0.696172
vt 0.931946 0.638283
vt 0.617821 0.586337
vt 0.652351 0.515744
vt 0.034479 0.590081
vt 0.031194 0.514490
vt 0.628740 0.712028
vt 0.680835 0.711120
vt 0.492848 0.712354
vt 0.926096 0.712975
vt 0.181515 0.786137
vt 0.002991 0.844120
vt 0.454606 0.842781
vt 0.151066 0.770419
vt 0.203165 0.771090
vt 0.015175 0.770713
vt 0.448415 0.768116
vt 0.636875 0.465715
vt 0.602630 0.394982
vt 0.019308 0.388883
vt 0.015718 0.464461
vt 0.019913 0.032323
vt 0.573691 0.037160
vt 0.640827 0.129602
vt 0.633080 0.022643
vt 0.031310 0.021323
vt 0.566385 0.128075
vt 0.011452 0.222354
vt 0.565247 0.220015
vt 0.632798 0.127876
vt 0.896425 0.278652
vt 0.068628 0.278652
vt 0.068628 0.480511
vt 0.896425 0.480511
vt 0.010321 0.548705
vt 0.703560 0.548705
vt 0.703560 0.618029
vt 0.010321 0.618029
vt 0.894807 0.266677
vt 0.067009 0.266677
vt 0.067009 0.468536
vt 0.894807 0.468536
vt 1.505297 0.618029
vt 0.812058 0.618029
vt 0.812058 0.548705
vt 1.505297 0.548705
vt 1.613795 0.548705
vt 1.613794 0.618029
vt 0.284751 0.593687
vt 0.284781 0.585380
vt 0.249051 0.585264
vt 0.249025 0.593572
vt 0.519697 0.947890
vt 0.519787 0.930295
vt 0.444867 0.929912
vt 0.444777 0.947507
vt 0.890714 0.595703
vt 0.890740 0.587395
vt 0.597374 0.586412
vt 0.597347 0.594725
vt 0.199602 0.928659
vt 0.199512 0.946254
vt 0.560259 0.586290
vt 0.560233 0.594598
vt 0.077402 0.979250
vt 0.077441 0.996846
vt 0.529055 0.995855
vt 0.529016 0.978260
vt 0.173147 0.946119
vt 0.173237 0.928524
vt 0.138971 0.928349
vt 0.138881 0.945944
vt 0.002991 0.979414
vt 0.003030 0.997009
vt 0.003081 0.927652
vt 0.002991 0.945247
vt 0.806796 0.894684
vt 0.806769 0.877089
vt 0.205003 0.878001
vt 0.205029 0.895597
vt 0.002991 0.878305
vt 0.003017 0.895901
vt 0.556804 0.902369
vt 0.556858 0.919964
vt 0.648799 0.919681
vt 0.648745 0.902086
vt 0.002991 0.904074
vt 0.003045 0.921670
vt 0.650394 0.127923
vt 0.650675 0.022690
vt 0.715206 0.919476
vt 0.715152 0.901882
s 1
usemtl wood
f 9/15/7 10/16/7 11/17/7
f 12/18/7 13/19/7 14/20/7
f 15/21/7 16/22/7 17/23/7
f 16/22/7 18/24/7 17/23/7
f 13/19/7 12/18/7 19/25/7
f 13/19/7 20/26/7 14/20/7
f 12/18/7 21/27/7 19/25/7
f 20/26/7 22/28/7 14/20/7
f 23/29/8 24/30/8 25/31/8
f 24/30/8 23/29/8 26/32/8
f 27/33/8 23/29/8 25/31/8
f 28/34/8 24/30/8 26/32/8
f 29/35/8 27/33/8 25/31/8
f 30/36/8 31/37/8 32/38/8
f 33/39/8 30/36/8 32/38/8
f 9/15/7 11/17/7 34/40/7
f 11/17/7 35/41/7 34/40/7
f 10/16/7 36/42/7 11/17/7
f 37/43/8 38/44/8 39/45/8
f 39/45/8 38/44/8 40/46/8
f 41/47/8 39/45/8 40/46/8
f 42/48/8 37/43/8 39/45/8
f 43/49/8 44/50/8 45/51/8
f 43/49/8 45/51/8 46/52/8
f 47/53/9 48/54/9 49/55/9
f 47/53/9 49/55/9 50/56/9
f 51/57/7 52/58/7 53/59/7
f 51/57/7 53/59/7 54/60/7
f 55/61/10 56/62/10 57/63/10
f 55/61/10 57/63/10 58/64/10
f 59/55/11 60/54/11 61/63/11
f 59/55/11 61/63/11 62/62/11
f 63/65/12 64/66/12 65/61/12
f 63/65/12 65/61/12 66/64/12
f 67/49/7 68/50/7 69/51/7
f 67/49/7 69/51/7 70/52/7
f 71/53/10 72/54/10 73/55/10
f 71/53/10 73/55/10 74/56/10
f 75/57/8 76/58/8 77/59/8
f 75/57/8 77/59/8 78/60/8
f 79/61/9 80/62/9 81/63/9
f 79/61/9 81/63/9 82/64/9
f 83/55/11 84/54/11 85/63/11
f 83/55/11 85/63/11 86/62/11
f 87/65/12 88/66/12 89/61/12
f 87/65/12 89/61/12 90/64/12
f 91/67/13 92/68/13 93/69/13
f 91/67/13 93/69/13 94/70/13
f 95/71/14 96/72/14 97/73/14
f 95/71/14 97/73/14 98/74/14
f 99/75/15 100/76/15 101/77/15
f 99/75/15 101/77/15 102/78/15
f 103/74/16 104/73/16 105/79/17
f 103/74/16 105/79/17 106/80/18
f 107/78/19 108/77/19 109/81/19
f 107/78/19 109/81/19 110/82/19
f 111/82/20 112/81/20 113/68/20
f 111/82/20 113/68/20 114/67/20
f 115/83/21 116/84/21 117/85/21
f 115/83/21 117/85/21 118/86/21
f 119/87/22 120/88/22 121/89/23
f 119/87/22 121/89/23 122/90/24
f 106/80/18 105/79/17 123/88/25
f 106/80/18 123/88/25 124/87/25
f 125/91/26 126/92/26 127/84/26
f 125/91/26 127/84/26 128/83/26
f 122/90/24 121/89/23 129/93/27
f 122/90/24 129/93/27 130/94/27
f 131/95/28 132/96/28 133/97/28
f 131/95/28 133/97/28 134/98/28
f 135/98/29 136/97/29 137/99/29
f 135/98/29 137/99/29 138/100/29
f 139/101/11 140/102/11 141/103/11
f 139/101/11 141/103/11 142/104/11
f 143/105/30 144/106/30 145/102/30
f 143/105/30 145/102/30 146/101/30
f 147/48/31 148/107/31 149/108/31
f 147/48/31 149/108/31 150/43/31
f 151/104/32 152/103/32 153/109/32
f 151/104/32 153/109/32 154/110/32
